<svg xmlns="http://www.w3.org/2000/svg" xmlns:xlink="http://www.w3.org/1999/xlink" width="500" zoomAndPan="magnify" viewBox="0 0 375 374.999991" height="500" preserveAspectRatio="xMidYMid meet" version="1.2"><defs><clipPath id="a5787043b2"><path d="M 0 0.320312 L 375 0.320312 L 375 375 L 0 375 Z M 0 0.320312 "/></clipPath><clipPath id="f908f125c9"><path d="M 63.75 0.320312 L 311.25 0.320312 C 346.457031 0.320312 375 28.859375 375 64.070312 L 375 311.570312 C 375 346.777344 346.457031 375.320312 311.25 375.320312 L 63.75 375.320312 C 28.542969 375.320312 0 346.777344 0 311.570312 L 0 64.070312 C 0 28.859375 28.542969 0.320312 63.75 0.320312 Z M 63.75 0.320312 "/></clipPath></defs><g id="6f4509671b"><g clip-rule="nonzero" clip-path="url(#a5787043b2)"><g clip-rule="nonzero" clip-path="url(#f908f125c9)"><path style=" stroke:none;fill-rule:nonzero;fill:#bbf246;fill-opacity:1;" d="M 0 0.320312 L 375 0.320312 L 375 375.320312 L 0 375.320312 Z M 0 0.320312 "/></g></g><path style=" stroke:none;fill-rule:nonzero;fill:#362e2f;fill-opacity:1;" d="M 287.90625 258.480469 L 225.507812 175.316406 C 225.230469 174.957031 224.992188 174.570312 224.789062 174.164062 C 224.589844 173.753906 224.429688 173.328125 224.3125 172.890625 C 224.195312 172.449219 224.121094 172.003906 224.09375 171.550781 C 224.0625 171.09375 224.078125 170.640625 224.136719 170.191406 C 224.195312 169.738281 224.300781 169.300781 224.445312 168.867188 C 224.59375 168.4375 224.78125 168.023438 225.007812 167.628906 C 225.234375 167.238281 225.5 166.867188 225.796875 166.527344 C 226.097656 166.183594 226.429688 165.875 226.789062 165.597656 C 227.152344 165.320312 227.535156 165.082031 227.941406 164.878906 C 228.351562 164.675781 228.773438 164.515625 229.214844 164.398438 C 229.652344 164.28125 230.101562 164.207031 230.554688 164.175781 C 231.007812 164.144531 231.460938 164.160156 231.914062 164.21875 C 232.363281 164.277344 232.804688 164.378906 233.238281 164.527344 C 233.667969 164.671875 234.082031 164.859375 234.476562 165.085938 C 234.871094 165.3125 235.238281 165.574219 235.582031 165.875 C 235.925781 166.175781 236.234375 166.503906 236.511719 166.863281 L 242.183594 173.671875 C 242.363281 173.886719 242.578125 174.054688 242.832031 174.175781 C 243.085938 174.296875 243.351562 174.355469 243.632812 174.355469 C 243.910156 174.355469 244.179688 174.296875 244.429688 174.175781 C 244.683594 174.054688 244.898438 173.886719 245.078125 173.671875 L 288.019531 116.546875 C 288.820312 115.523438 289.570312 114.460938 290.273438 113.363281 C 290.972656 112.265625 291.617188 111.140625 292.207031 109.980469 C 292.800781 108.824219 293.335938 107.640625 293.8125 106.429688 C 294.292969 105.21875 294.714844 103.988281 295.074219 102.738281 C 295.433594 101.492188 295.734375 100.226562 295.976562 98.949219 C 296.21875 97.667969 296.394531 96.382812 296.511719 95.085938 C 296.628906 93.789062 296.6875 92.492188 296.679688 91.191406 C 296.671875 89.890625 296.605469 88.59375 296.472656 87.300781 C 296.34375 86.003906 296.152344 84.71875 295.898438 83.445312 C 295.644531 82.167969 295.332031 80.90625 294.957031 79.660156 C 294.582031 78.414062 294.148438 77.1875 293.660156 75.984375 C 293.167969 74.78125 292.621094 73.601562 292.015625 72.449219 C 291.414062 71.296875 290.757812 70.175781 290.046875 69.085938 C 289.335938 67.996094 288.574219 66.941406 287.761719 65.925781 C 286.953125 64.910156 286.09375 63.933594 285.1875 63 C 284.285156 62.0625 283.335938 61.175781 282.347656 60.328125 C 281.3125 59.492188 280.238281 58.710938 279.125 57.984375 C 278.011719 57.257812 276.863281 56.585938 275.679688 55.972656 C 274.5 55.359375 273.289062 54.808594 272.054688 54.316406 C 270.816406 53.828125 269.558594 53.398438 268.277344 53.035156 C 267 52.671875 265.703125 52.371094 264.394531 52.136719 C 263.085938 51.902344 261.765625 51.734375 260.4375 51.632812 C 259.113281 51.53125 257.785156 51.496094 256.453125 51.527344 C 255.125 51.558594 253.796875 51.65625 252.476562 51.824219 C 251.15625 51.988281 249.847656 52.21875 248.550781 52.515625 C 247.253906 52.8125 245.976562 53.171875 244.714844 53.597656 C 243.453125 54.023438 242.214844 54.511719 241.003906 55.0625 C 239.792969 55.609375 238.613281 56.21875 237.460938 56.886719 C 236.308594 57.554688 235.195312 58.28125 234.117188 59.058594 C 233.039062 59.839844 232.003906 60.671875 231.007812 61.558594 C 230.015625 62.441406 229.066406 63.375 228.167969 64.355469 C 227.265625 65.332031 226.417969 66.355469 225.621094 67.421875 L 170.707031 139.863281 C 170.507812 140.109375 170.253906 140.28125 169.945312 140.371094 C 169.640625 140.460938 169.335938 140.453125 169.03125 140.355469 C 168.726562 140.253906 168.480469 140.074219 168.289062 139.816406 C 168.097656 139.5625 167.996094 139.273438 167.984375 138.953125 L 167.984375 92.949219 C 168.003906 91.648438 167.960938 90.347656 167.859375 89.050781 C 167.753906 87.753906 167.589844 86.460938 167.359375 85.179688 C 167.132812 83.898438 166.84375 82.632812 166.496094 81.378906 C 166.144531 80.125 165.738281 78.890625 165.269531 77.675781 C 164.804688 76.460938 164.277344 75.269531 163.699219 74.105469 C 163.117188 72.941406 162.480469 71.804688 161.789062 70.703125 C 161.101562 69.597656 160.359375 68.53125 159.566406 67.496094 C 158.777344 66.464844 157.9375 65.472656 157.046875 64.519531 C 156.160156 63.566406 155.230469 62.660156 154.257812 61.792969 C 153.28125 60.929688 152.269531 60.117188 151.21875 59.351562 C 150.164062 58.582031 149.078125 57.871094 147.957031 57.207031 C 146.835938 56.542969 145.6875 55.9375 144.507812 55.382812 C 143.332031 54.832031 142.128906 54.335938 140.902344 53.902344 C 139.675781 53.464844 138.433594 53.085938 137.171875 52.765625 C 135.90625 52.449219 134.632812 52.191406 133.347656 51.996094 C 132.058594 51.800781 130.765625 51.664062 129.464844 51.59375 C 128.140625 51.550781 126.816406 51.578125 125.492188 51.667969 C 124.167969 51.757812 122.851562 51.914062 121.542969 52.140625 C 120.234375 52.363281 118.941406 52.648438 117.664062 53.003906 C 116.382812 53.355469 115.125 53.773438 113.886719 54.25 C 112.648438 54.730469 111.4375 55.269531 110.253906 55.871094 C 109.070312 56.46875 107.921875 57.128906 106.804688 57.84375 C 105.6875 58.558594 104.609375 59.328125 103.566406 60.152344 C 102.527344 60.976562 101.53125 61.851562 100.578125 62.773438 C 99.625 63.699219 98.71875 64.667969 97.863281 65.679688 C 97.007812 66.695312 96.207031 67.75 95.457031 68.84375 C 94.707031 69.9375 94.015625 71.070312 93.378906 72.234375 C 92.742188 73.398438 92.164062 74.589844 91.648438 75.8125 C 91.128906 77.035156 90.675781 78.28125 90.28125 79.546875 C 89.890625 80.816406 89.5625 82.101562 89.300781 83.398438 C 89.035156 84.699219 88.839844 86.011719 88.707031 87.332031 C 88.574219 88.652344 88.507812 89.976562 88.507812 91.304688 L 88.507812 281.738281 C 88.488281 283.039062 88.53125 284.339844 88.636719 285.636719 C 88.738281 286.933594 88.90625 288.222656 89.132812 289.503906 C 89.363281 290.785156 89.648438 292.054688 90 293.308594 C 90.347656 294.5625 90.757812 295.796875 91.222656 297.011719 C 91.691406 298.226562 92.214844 299.417969 92.796875 300.582031 C 93.378906 301.746094 94.011719 302.878906 94.703125 303.984375 C 95.394531 305.089844 96.132812 306.15625 96.925781 307.1875 C 97.71875 308.222656 98.558594 309.214844 99.445312 310.167969 C 100.332031 311.121094 101.261719 312.027344 102.238281 312.890625 C 103.210938 313.753906 104.222656 314.570312 105.277344 315.335938 C 106.328125 316.101562 107.414062 316.816406 108.535156 317.480469 C 109.65625 318.140625 110.804688 318.75 111.984375 319.300781 C 113.164062 319.855469 114.367188 320.347656 115.589844 320.785156 C 116.816406 321.222656 118.0625 321.601562 119.324219 321.917969 C 120.585938 322.238281 121.859375 322.492188 123.148438 322.691406 C 124.433594 322.886719 125.726562 323.019531 127.027344 323.09375 C 128.355469 323.132812 129.679688 323.109375 131.003906 323.019531 C 132.328125 322.925781 133.640625 322.769531 134.949219 322.546875 C 136.257812 322.324219 137.550781 322.035156 138.832031 321.683594 C 140.109375 321.332031 141.371094 320.914062 142.605469 320.4375 C 143.84375 319.957031 145.054688 319.417969 146.238281 318.816406 C 147.421875 318.214844 148.574219 317.558594 149.691406 316.84375 C 150.808594 316.128906 151.886719 315.359375 152.925781 314.535156 C 153.96875 313.710938 154.964844 312.835938 155.917969 311.914062 C 156.871094 310.988281 157.773438 310.019531 158.628906 309.003906 C 159.484375 307.992188 160.289062 306.9375 161.039062 305.84375 C 161.785156 304.746094 162.480469 303.617188 163.117188 302.453125 C 163.753906 301.289062 164.332031 300.09375 164.847656 298.875 C 165.363281 297.652344 165.820312 296.40625 166.210938 295.136719 C 166.601562 293.871094 166.929688 292.585938 167.195312 291.285156 C 167.457031 289.984375 167.65625 288.675781 167.789062 287.355469 C 167.917969 286.035156 167.984375 284.710938 167.984375 283.382812 L 167.984375 231.195312 L 225.222656 307.324219 C 226.035156 308.398438 226.898438 309.433594 227.8125 310.421875 C 228.730469 311.414062 229.695312 312.351562 230.707031 313.246094 C 231.71875 314.136719 232.773438 314.972656 233.871094 315.757812 C 234.96875 316.542969 236.101562 317.269531 237.273438 317.9375 C 238.445312 318.605469 239.648438 319.210938 240.882812 319.757812 C 242.117188 320.304688 243.375 320.785156 244.65625 321.203125 C 245.9375 321.621094 247.238281 321.972656 248.558594 322.257812 C 249.875 322.542969 251.203125 322.757812 252.542969 322.910156 C 253.886719 323.058594 255.230469 323.140625 256.578125 323.152344 C 257.925781 323.164062 259.273438 323.109375 260.617188 322.984375 C 261.957031 322.859375 263.292969 322.667969 264.617188 322.40625 C 265.9375 322.148438 267.246094 321.820312 268.535156 321.425781 C 269.824219 321.035156 271.09375 320.574219 272.335938 320.050781 C 273.578125 319.53125 274.792969 318.945312 275.976562 318.300781 C 277.160156 317.652344 278.308594 316.949219 279.421875 316.1875 C 280.53125 315.421875 281.601562 314.605469 282.632812 313.734375 C 283.589844 312.890625 284.503906 312.003906 285.375 311.078125 C 286.25 310.148438 287.074219 309.179688 287.859375 308.171875 C 288.640625 307.167969 289.371094 306.125 290.054688 305.050781 C 290.738281 303.976562 291.371094 302.871094 291.949219 301.734375 C 292.527344 300.597656 293.054688 299.441406 293.523438 298.253906 C 293.992188 297.070312 294.40625 295.867188 294.765625 294.644531 C 295.121094 293.417969 295.417969 292.183594 295.660156 290.929688 C 295.898438 289.679688 296.078125 288.417969 296.199219 287.148438 C 296.320312 285.882812 296.382812 284.609375 296.382812 283.335938 C 296.386719 282.0625 296.328125 280.789062 296.207031 279.519531 C 296.089844 278.25 295.910156 276.992188 295.675781 275.738281 C 295.4375 274.488281 295.140625 273.25 294.785156 272.023438 C 294.433594 270.800781 294.023438 269.59375 293.554688 268.410156 C 293.085938 267.222656 292.5625 266.0625 291.988281 264.925781 C 291.410156 263.789062 290.78125 262.683594 290.097656 261.605469 C 289.417969 260.53125 288.6875 259.488281 287.90625 258.480469 Z M 287.90625 258.480469 "/><path style=" stroke:none;fill-rule:nonzero;fill:#4d4445;fill-opacity:1;" d="M 88.507812 258.027344 L 88.507812 281.738281 C 88.488281 283.039062 88.53125 284.339844 88.636719 285.636719 C 88.738281 286.933594 88.90625 288.222656 89.132812 289.503906 C 89.363281 290.785156 89.648438 292.054688 90 293.308594 C 90.347656 294.5625 90.757812 295.796875 91.222656 297.011719 C 91.691406 298.226562 92.214844 299.417969 92.796875 300.582031 C 93.378906 301.746094 94.011719 302.878906 94.703125 303.984375 C 95.394531 305.089844 96.132812 306.15625 96.925781 307.1875 C 97.71875 308.222656 98.558594 309.214844 99.445312 310.167969 C 100.332031 311.121094 101.261719 312.027344 102.238281 312.890625 C 103.210938 313.753906 104.222656 314.570312 105.277344 315.335938 C 106.328125 316.101562 107.414062 316.816406 108.535156 317.480469 C 109.65625 318.140625 110.804688 318.75 111.984375 319.300781 C 113.164062 319.855469 114.367188 320.347656 115.589844 320.785156 C 116.816406 321.222656 118.0625 321.601562 119.324219 321.917969 C 120.585938 322.238281 121.859375 322.492188 123.148438 322.691406 C 124.433594 322.886719 125.726562 323.019531 127.027344 323.09375 C 128.355469 323.132812 129.679688 323.109375 131.003906 323.019531 C 132.328125 322.925781 133.644531 322.769531 134.949219 322.546875 C 136.257812 322.324219 137.550781 322.035156 138.832031 321.683594 C 140.109375 321.332031 141.371094 320.914062 142.605469 320.4375 C 143.84375 319.957031 145.054688 319.417969 146.238281 318.816406 C 147.421875 318.214844 148.574219 317.558594 149.691406 316.84375 C 150.808594 316.128906 151.886719 315.359375 152.925781 314.535156 C 153.96875 313.710938 154.964844 312.835938 155.917969 311.914062 C 156.871094 310.988281 157.773438 310.019531 158.628906 309.003906 C 159.484375 307.992188 160.289062 306.9375 161.039062 305.839844 C 161.785156 304.746094 162.480469 303.617188 163.117188 302.453125 C 163.753906 301.289062 164.332031 300.09375 164.847656 298.875 C 165.363281 297.652344 165.820312 296.40625 166.210938 295.136719 C 166.601562 293.871094 166.929688 292.585938 167.195312 291.285156 C 167.457031 289.984375 167.65625 288.675781 167.789062 287.355469 C 167.917969 286.035156 167.984375 284.710938 167.984375 283.382812 L 167.984375 231.363281 C 167.292969 230.445312 166.566406 229.554688 165.804688 228.695312 C 165.042969 227.832031 164.246094 227.003906 163.421875 226.203125 C 162.59375 225.402344 161.738281 224.636719 160.851562 223.90625 C 159.964844 223.171875 159.050781 222.476562 158.109375 221.816406 C 157.171875 221.152344 156.203125 220.53125 155.214844 219.945312 C 154.226562 219.359375 153.214844 218.8125 152.183594 218.304688 C 151.152344 217.796875 150.101562 217.332031 149.03125 216.90625 C 147.964844 216.480469 146.878906 216.097656 145.78125 215.757812 C 144.683594 215.417969 143.574219 215.121094 142.453125 214.867188 C 141.332031 214.613281 140.199219 214.402344 139.0625 214.238281 C 137.925781 214.074219 136.78125 213.953125 135.632812 213.875 C 134.488281 213.800781 133.339844 213.769531 132.1875 213.78125 C 131.039062 213.792969 129.890625 213.851562 128.746094 213.957031 C 127.601562 214.058594 126.460938 214.207031 125.328125 214.398438 C 124.195312 214.589844 123.070312 214.824219 121.953125 215.105469 C 120.839844 215.382812 119.734375 215.707031 118.644531 216.074219 C 117.554688 216.4375 116.480469 216.847656 115.421875 217.296875 C 114.363281 217.746094 113.324219 218.234375 112.304688 218.765625 C 111.285156 219.296875 110.285156 219.867188 109.3125 220.476562 C 108.335938 221.082031 107.382812 221.730469 106.460938 222.414062 C 105.535156 223.09375 104.636719 223.8125 103.769531 224.566406 C 102.898438 225.320312 102.058594 226.105469 101.253906 226.921875 C 100.445312 227.742188 99.667969 228.589844 98.929688 229.46875 C 98.1875 230.347656 97.480469 231.253906 96.808594 232.1875 C 96.136719 233.121094 95.503906 234.082031 94.910156 235.0625 C 94.3125 236.046875 93.753906 237.050781 93.238281 238.078125 C 92.722656 239.105469 92.242188 240.152344 91.808594 241.214844 C 91.371094 242.28125 90.976562 243.359375 90.625 244.453125 C 90.273438 245.546875 89.964844 246.65625 89.699219 247.773438 C 89.4375 248.894531 89.214844 250.019531 89.039062 251.15625 C 88.859375 252.292969 88.726562 253.433594 88.640625 254.582031 C 88.550781 255.726562 88.507812 256.875 88.507812 258.027344 Z M 88.507812 258.027344 "/></g></svg>