<svg xmlns="http://www.w3.org/2000/svg" xmlns:xlink="http://www.w3.org/1999/xlink" width="500" zoomAndPan="magnify" viewBox="0 0 375 374.999991" height="500" preserveAspectRatio="xMidYMid meet" version="1.2"><defs><clipPath id="c8e54b2702"><path d="M 63.75 0 L 311.25 0 C 346.457031 0 375 28.542969 375 63.75 L 375 311.25 C 375 346.457031 346.457031 375 311.25 375 L 63.75 375 C 28.542969 375 0 346.457031 0 311.25 L 0 63.75 C 0 28.542969 28.542969 0 63.75 0 Z M 63.75 0 "/></clipPath></defs><g id="2df94f438a"><g clip-rule="nonzero" clip-path="url(#c8e54b2702)"><rect x="0" width="375" y="0" height="374.999991" style="fill:#362e2f;fill-opacity:1;stroke:none;"/></g><path style=" stroke:none;fill-rule:nonzero;fill:#bbf246;fill-opacity:1;" d="M 288.765625 257.730469 L 226.363281 174.566406 C 226.085938 174.207031 225.847656 173.820312 225.648438 173.414062 C 225.445312 173.003906 225.289062 172.578125 225.167969 172.140625 C 225.050781 171.699219 224.980469 171.253906 224.949219 170.800781 C 224.917969 170.34375 224.933594 169.890625 224.996094 169.441406 C 225.054688 168.988281 225.15625 168.550781 225.304688 168.117188 C 225.449219 167.6875 225.636719 167.273438 225.863281 166.878906 C 226.089844 166.488281 226.355469 166.117188 226.65625 165.777344 C 226.957031 165.433594 227.285156 165.125 227.648438 164.847656 C 228.007812 164.570312 228.390625 164.332031 228.800781 164.128906 C 229.207031 163.925781 229.632812 163.765625 230.070312 163.648438 C 230.511719 163.53125 230.957031 163.457031 231.410156 163.425781 C 231.867188 163.394531 232.320312 163.410156 232.769531 163.46875 C 233.222656 163.527344 233.664062 163.628906 234.09375 163.777344 C 234.523438 163.921875 234.9375 164.109375 235.332031 164.335938 C 235.726562 164.5625 236.09375 164.824219 236.4375 165.125 C 236.78125 165.425781 237.089844 165.753906 237.367188 166.113281 L 243.042969 172.921875 C 243.21875 173.136719 243.433594 173.304688 243.6875 173.425781 C 243.941406 173.546875 244.207031 173.605469 244.488281 173.605469 C 244.769531 173.605469 245.035156 173.546875 245.289062 173.425781 C 245.542969 173.304688 245.757812 173.136719 245.933594 172.921875 L 288.878906 115.796875 C 289.679688 114.773438 290.429688 113.710938 291.128906 112.613281 C 291.828125 111.515625 292.472656 110.390625 293.066406 109.230469 C 293.65625 108.074219 294.191406 106.886719 294.671875 105.679688 C 295.148438 104.46875 295.570312 103.238281 295.929688 101.988281 C 296.292969 100.742188 296.59375 99.476562 296.832031 98.199219 C 297.074219 96.917969 297.253906 95.632812 297.371094 94.335938 C 297.488281 93.039062 297.542969 91.742188 297.535156 90.441406 C 297.53125 89.140625 297.460938 87.84375 297.332031 86.550781 C 297.199219 85.253906 297.007812 83.96875 296.753906 82.695312 C 296.5 81.417969 296.1875 80.15625 295.8125 78.910156 C 295.441406 77.664062 295.007812 76.4375 294.515625 75.234375 C 294.023438 74.03125 293.476562 72.851562 292.875 71.699219 C 292.269531 70.546875 291.613281 69.425781 290.902344 68.335938 C 290.191406 67.246094 289.429688 66.191406 288.621094 65.175781 C 287.808594 64.160156 286.949219 63.183594 286.046875 62.25 C 285.140625 61.3125 284.195312 60.425781 283.203125 59.578125 C 282.167969 58.742188 281.09375 57.960938 279.980469 57.234375 C 278.867188 56.507812 277.71875 55.835938 276.539062 55.222656 C 275.355469 54.609375 274.148438 54.058594 272.910156 53.566406 C 271.671875 53.078125 270.414062 52.648438 269.136719 52.285156 C 267.855469 51.921875 266.5625 51.621094 265.25 51.386719 C 263.941406 51.152344 262.621094 50.984375 261.296875 50.882812 C 259.96875 50.78125 258.640625 50.746094 257.308594 50.777344 C 255.980469 50.808594 254.65625 50.90625 253.335938 51.074219 C 252.015625 51.238281 250.707031 51.46875 249.40625 51.765625 C 248.109375 52.0625 246.832031 52.421875 245.570312 52.847656 C 244.308594 53.273438 243.074219 53.761719 241.863281 54.3125 C 240.648438 54.859375 239.46875 55.46875 238.316406 56.136719 C 237.167969 56.804688 236.050781 57.53125 234.976562 58.308594 C 233.898438 59.089844 232.859375 59.921875 231.867188 60.808594 C 230.871094 61.691406 229.925781 62.625 229.023438 63.601562 C 228.125 64.582031 227.273438 65.605469 226.476562 66.671875 L 171.566406 139.113281 C 171.363281 139.359375 171.109375 139.53125 170.804688 139.621094 C 170.496094 139.710938 170.191406 139.703125 169.886719 139.605469 C 169.585938 139.503906 169.335938 139.324219 169.144531 139.066406 C 168.953125 138.8125 168.851562 138.523438 168.839844 138.203125 L 168.839844 92.199219 C 168.863281 90.898438 168.820312 89.597656 168.714844 88.300781 C 168.609375 87.003906 168.445312 85.710938 168.21875 84.429688 C 167.988281 83.148438 167.699219 81.882812 167.351562 80.628906 C 167.003906 79.375 166.59375 78.140625 166.128906 76.925781 C 165.660156 75.710938 165.136719 74.519531 164.554688 73.355469 C 163.972656 72.191406 163.335938 71.054688 162.648438 69.953125 C 161.957031 68.847656 161.214844 67.78125 160.425781 66.746094 C 159.632812 65.714844 158.792969 64.722656 157.90625 63.769531 C 157.019531 62.816406 156.085938 61.910156 155.113281 61.042969 C 154.140625 60.179688 153.125 59.367188 152.074219 58.601562 C 151.023438 57.832031 149.9375 57.121094 148.816406 56.457031 C 147.695312 55.792969 146.546875 55.1875 145.367188 54.632812 C 144.1875 54.082031 142.984375 53.585938 141.757812 53.148438 C 140.53125 52.714844 139.289062 52.335938 138.027344 52.015625 C 136.765625 51.699219 135.488281 51.441406 134.203125 51.246094 C 132.917969 51.050781 131.625 50.914062 130.324219 50.84375 C 128.996094 50.800781 127.671875 50.828125 126.347656 50.917969 C 125.023438 51.007812 123.707031 51.164062 122.398438 51.390625 C 121.09375 51.613281 119.796875 51.898438 118.519531 52.253906 C 117.238281 52.605469 115.980469 53.019531 114.742188 53.5 C 113.507812 53.980469 112.296875 54.519531 111.113281 55.121094 C 109.929688 55.71875 108.777344 56.378906 107.660156 57.09375 C 106.542969 57.808594 105.464844 58.578125 104.425781 59.402344 C 103.382812 60.226562 102.386719 61.101562 101.433594 62.023438 C 100.480469 62.949219 99.578125 63.917969 98.722656 64.929688 C 97.867188 65.945312 97.0625 67 96.3125 68.09375 C 95.5625 69.1875 94.871094 70.320312 94.234375 71.484375 C 93.597656 72.648438 93.019531 73.839844 92.503906 75.0625 C 91.988281 76.285156 91.53125 77.53125 91.140625 78.796875 C 90.746094 80.066406 90.417969 81.351562 90.15625 82.648438 C 89.894531 83.949219 89.695312 85.261719 89.5625 86.582031 C 89.429688 87.902344 89.367188 89.226562 89.367188 90.554688 L 89.367188 280.988281 C 89.347656 282.289062 89.386719 283.589844 89.492188 284.886719 C 89.597656 286.183594 89.761719 287.472656 89.992188 288.753906 C 90.21875 290.035156 90.507812 291.304688 90.855469 292.558594 C 91.203125 293.8125 91.613281 295.046875 92.082031 296.261719 C 92.546875 297.476562 93.070312 298.667969 93.652344 299.832031 C 94.234375 300.996094 94.871094 302.128906 95.558594 303.234375 C 96.25 304.339844 96.992188 305.40625 97.78125 306.4375 C 98.574219 307.472656 99.414062 308.464844 100.300781 309.417969 C 101.1875 310.371094 102.121094 311.277344 103.09375 312.140625 C 104.066406 313.003906 105.082031 313.820312 106.132812 314.585938 C 107.183594 315.351562 108.273438 316.066406 109.390625 316.730469 C 110.511719 317.390625 111.664062 318 112.839844 318.550781 C 114.019531 319.105469 115.222656 319.597656 116.449219 320.035156 C 117.675781 320.472656 118.917969 320.851562 120.179688 321.167969 C 121.441406 321.488281 122.71875 321.742188 124.003906 321.941406 C 125.292969 322.136719 126.585938 322.269531 127.882812 322.34375 C 129.210938 322.382812 130.535156 322.359375 131.859375 322.269531 C 133.183594 322.175781 134.5 322.019531 135.808594 321.796875 C 137.117188 321.574219 138.410156 321.285156 139.6875 320.933594 C 140.96875 320.582031 142.226562 320.164062 143.464844 319.6875 C 144.703125 319.207031 145.910156 318.667969 147.09375 318.066406 C 148.277344 317.464844 149.429688 316.808594 150.546875 316.09375 C 151.664062 315.378906 152.742188 314.609375 153.785156 313.785156 C 154.824219 312.960938 155.820312 312.085938 156.773438 311.164062 C 157.726562 310.238281 158.628906 309.269531 159.484375 308.253906 C 160.339844 307.242188 161.144531 306.1875 161.894531 305.089844 C 162.644531 303.996094 163.335938 302.867188 163.972656 301.703125 C 164.609375 300.539062 165.1875 299.34375 165.703125 298.125 C 166.222656 296.902344 166.675781 295.65625 167.066406 294.386719 C 167.460938 293.121094 167.789062 291.835938 168.050781 290.535156 C 168.316406 289.234375 168.511719 287.925781 168.644531 286.605469 C 168.777344 285.285156 168.84375 283.960938 168.839844 282.632812 L 168.839844 230.445312 L 226.078125 306.574219 C 226.890625 307.648438 227.753906 308.683594 228.671875 309.671875 C 229.585938 310.664062 230.550781 311.601562 231.5625 312.496094 C 232.574219 313.386719 233.628906 314.222656 234.726562 315.007812 C 235.824219 315.792969 236.960938 316.519531 238.132812 317.1875 C 239.304688 317.855469 240.503906 318.460938 241.738281 319.007812 C 242.972656 319.554688 244.230469 320.035156 245.511719 320.453125 C 246.796875 320.871094 248.09375 321.222656 249.414062 321.507812 C 250.730469 321.792969 252.0625 322.007812 253.402344 322.160156 C 254.742188 322.308594 256.085938 322.390625 257.433594 322.402344 C 258.785156 322.414062 260.128906 322.359375 261.472656 322.234375 C 262.816406 322.109375 264.148438 321.917969 265.472656 321.65625 C 266.796875 321.398438 268.101562 321.070312 269.390625 320.675781 C 270.683594 320.285156 271.949219 319.824219 273.191406 319.300781 C 274.4375 318.78125 275.648438 318.195312 276.832031 317.550781 C 278.015625 316.902344 279.164062 316.199219 280.277344 315.4375 C 281.390625 314.671875 282.460938 313.855469 283.488281 312.984375 C 284.445312 312.140625 285.359375 311.253906 286.230469 310.328125 C 287.105469 309.398438 287.933594 308.429688 288.714844 307.421875 C 289.496094 306.417969 290.230469 305.375 290.910156 304.300781 C 291.59375 303.226562 292.226562 302.121094 292.804688 300.984375 C 293.386719 299.847656 293.910156 298.691406 294.378906 297.503906 C 294.851562 296.320312 295.265625 295.117188 295.621094 293.894531 C 295.976562 292.667969 296.277344 291.433594 296.515625 290.179688 C 296.753906 288.929688 296.9375 287.667969 297.058594 286.398438 C 297.179688 285.132812 297.238281 283.859375 297.242188 282.585938 C 297.242188 281.3125 297.183594 280.039062 297.066406 278.769531 C 296.945312 277.5 296.769531 276.242188 296.53125 274.988281 C 296.292969 273.738281 295.996094 272.5 295.644531 271.273438 C 295.289062 270.050781 294.878906 268.84375 294.410156 267.660156 C 293.941406 266.472656 293.421875 265.3125 292.84375 264.175781 C 292.265625 263.039062 291.636719 261.933594 290.957031 260.855469 C 290.273438 259.78125 289.542969 258.738281 288.765625 257.730469 Z M 288.765625 257.730469 "/><path style=" stroke:none;fill-rule:nonzero;fill:#a2db2a;fill-opacity:1;" d="M 89.367188 257.277344 L 89.367188 280.988281 C 89.347656 282.289062 89.386719 283.589844 89.492188 284.886719 C 89.597656 286.183594 89.761719 287.472656 89.992188 288.753906 C 90.21875 290.035156 90.507812 291.304688 90.855469 292.558594 C 91.203125 293.8125 91.613281 295.046875 92.082031 296.261719 C 92.546875 297.476562 93.070312 298.667969 93.652344 299.832031 C 94.234375 300.996094 94.871094 302.128906 95.558594 303.234375 C 96.25 304.339844 96.992188 305.40625 97.78125 306.4375 C 98.574219 307.472656 99.414062 308.464844 100.300781 309.417969 C 101.1875 310.371094 102.121094 311.277344 103.09375 312.140625 C 104.066406 313.003906 105.082031 313.820312 106.132812 314.585938 C 107.1875 315.351562 108.273438 316.066406 109.390625 316.730469 C 110.511719 317.390625 111.664062 318 112.839844 318.550781 C 114.019531 319.105469 115.222656 319.597656 116.449219 320.035156 C 117.675781 320.472656 118.917969 320.851562 120.179688 321.167969 C 121.441406 321.488281 122.71875 321.742188 124.003906 321.941406 C 125.292969 322.136719 126.585938 322.269531 127.882812 322.34375 C 129.210938 322.382812 130.535156 322.359375 131.859375 322.269531 C 133.183594 322.175781 134.5 322.019531 135.808594 321.796875 C 137.117188 321.574219 138.410156 321.285156 139.6875 320.933594 C 140.96875 320.582031 142.226562 320.164062 143.464844 319.6875 C 144.703125 319.207031 145.910156 318.667969 147.09375 318.066406 C 148.277344 317.464844 149.429688 316.808594 150.546875 316.09375 C 151.664062 315.378906 152.742188 314.609375 153.785156 313.785156 C 154.824219 312.960938 155.820312 312.085938 156.773438 311.164062 C 157.726562 310.238281 158.628906 309.269531 159.484375 308.253906 C 160.339844 307.242188 161.144531 306.1875 161.894531 305.089844 C 162.644531 303.996094 163.335938 302.867188 163.972656 301.703125 C 164.609375 300.539062 165.1875 299.34375 165.703125 298.125 C 166.222656 296.902344 166.675781 295.65625 167.066406 294.386719 C 167.460938 293.121094 167.789062 291.835938 168.050781 290.535156 C 168.316406 289.234375 168.511719 287.925781 168.644531 286.605469 C 168.777344 285.285156 168.84375 283.960938 168.839844 282.632812 L 168.839844 230.613281 C 168.148438 229.695312 167.421875 228.804688 166.660156 227.945312 C 165.898438 227.082031 165.105469 226.253906 164.277344 225.453125 C 163.453125 224.652344 162.59375 223.886719 161.707031 223.15625 C 160.820312 222.421875 159.910156 221.726562 158.96875 221.066406 C 158.027344 220.402344 157.0625 219.78125 156.070312 219.195312 C 155.082031 218.609375 154.070312 218.0625 153.039062 217.554688 C 152.007812 217.046875 150.957031 216.582031 149.890625 216.15625 C 148.820312 215.730469 147.738281 215.347656 146.636719 215.007812 C 145.539062 214.667969 144.429688 214.371094 143.308594 214.117188 C 142.1875 213.863281 141.058594 213.652344 139.917969 213.488281 C 138.78125 213.324219 137.640625 213.203125 136.492188 213.125 C 135.34375 213.050781 134.195312 213.019531 133.046875 213.03125 C 131.894531 213.042969 130.746094 213.101562 129.601562 213.207031 C 128.457031 213.308594 127.316406 213.457031 126.183594 213.648438 C 125.050781 213.839844 123.925781 214.074219 122.808594 214.355469 C 121.695312 214.632812 120.59375 214.957031 119.5 215.324219 C 118.410156 215.6875 117.335938 216.097656 116.277344 216.546875 C 115.21875 216.996094 114.179688 217.484375 113.160156 218.015625 C 112.140625 218.546875 111.144531 219.117188 110.167969 219.726562 C 109.191406 220.332031 108.242188 220.980469 107.316406 221.664062 C 106.390625 222.34375 105.492188 223.0625 104.625 223.816406 C 103.753906 224.570312 102.917969 225.355469 102.109375 226.171875 C 101.300781 226.992188 100.527344 227.839844 99.785156 228.71875 C 99.042969 229.597656 98.335938 230.503906 97.664062 231.4375 C 96.996094 232.371094 96.363281 233.332031 95.765625 234.3125 C 95.167969 235.296875 94.613281 236.300781 94.09375 237.328125 C 93.578125 238.355469 93.101562 239.402344 92.664062 240.464844 C 92.230469 241.53125 91.835938 242.609375 91.484375 243.703125 C 91.132812 244.796875 90.824219 245.90625 90.558594 247.023438 C 90.292969 248.144531 90.070312 249.269531 89.894531 250.40625 C 89.71875 251.542969 89.585938 252.683594 89.496094 253.832031 C 89.40625 254.976562 89.363281 256.125 89.367188 257.277344 Z M 89.367188 257.277344 "/></g></svg>